<svg fill="#157698" id="Layer_1" enable-background="new 0 0 512.002 512.002" height="512" viewBox="0 0 512.002 512.002" width="512" xmlns="http://www.w3.org/2000/svg"><g><g><path d="m322.001 0c-104.767 0-190 85.234-190 190 0 41.58 13.436 80.075 36.18 111.394l-17.097 17.097c-3.983-1.898-8.377-2.902-12.931-2.902 0 0 0 0-.001 0-8.029 0-15.562 3.112-21.212 8.762l-108.177 108.178c-5.651 5.65-8.763 13.184-8.763 21.213s3.112 15.563 8.762 21.213l28.284 28.284c5.651 5.65 13.185 8.763 21.213 8.763 8.028 0 15.563-3.112 21.213-8.762l108.178-108.177c5.651-5.65 8.763-13.184 8.763-21.213 0-4.555-1.004-8.949-2.902-12.931l17.096-17.096c31.32 22.742 69.814 36.177 111.394 36.177 104.767 0 190.001-85.233 190.001-190s-85.234-190-190.001-190zm-148.493 380.92-108.177 108.177c-1.873 1.873-4.384 2.905-7.07 2.905-2.687 0-5.198-1.032-7.071-2.905l-28.284-28.284c-3.899-3.899-3.899-10.243 0-14.142l108.177-108.178c1.873-1.873 4.384-2.904 7.07-2.904s5.198 1.032 7.071 2.905l28.28 28.279.005.005c.001.001.002.002.003.002 1.872 1.873 2.902 4.383 2.902 7.068-.001 2.688-1.033 5.199-2.906 7.072zm7.071-35.355-14.142-14.142 14.397-14.396c4.465 4.957 9.185 9.677 14.142 14.142zm141.422 14.435c-93.738 0-170-76.262-170-170 0-93.739 76.262-170 170-170 93.739 0 170.001 76.262 170.001 170 0 93.739-76.262 170-170.001 170z"/><path d="m322.001 40c-23.512 0-46.039 5.299-66.957 15.75-4.94 2.469-6.944 8.475-4.476 13.416 2.469 4.94 8.475 6.944 13.416 4.476 18.116-9.052 37.636-13.642 58.017-13.642 71.683 0 130 58.318 130 130s-58.317 130-130 130c-71.682 0-130-58.318-130-130 0-20.384 4.588-39.901 13.638-58.011 2.469-4.94.465-10.947-4.475-13.416-4.941-2.47-10.947-.465-13.416 4.475-10.449 20.911-15.748 43.437-15.748 66.951 0 82.71 67.29 150 150 150s150-67.29 150-150-67.289-149.999-149.999-149.999z"/><path d="m354.736 227.332c4.256-6.398 12.552-14.983 20.105-22.536 7.017-7.016 12.524-15.245 16.371-24.455 3.841-9.194 5.788-18.873 5.788-28.767 0-20.03-7.802-38.863-21.968-53.031-14.167-14.167-33.001-21.968-53.032-21.968s-38.864 7.802-53.031 21.968c-14.167 14.167-21.969 33-21.969 53.031 0 16.542 13.458 30 30 30s30-13.458 30-30c0-4.008 1.56-7.775 4.393-10.608 2.832-2.832 6.599-4.392 10.607-4.392s7.776 1.56 10.608 4.392 4.392 6.599 4.392 10.607c0 2.037-.376 3.97-1.117 5.745-.744 1.783-1.943 3.53-3.466 5.053-13.635 13.635-21.636 22.863-27.615 31.851-8.733 13.128-12.802 25.583-12.802 39.194 0 7.678 2.903 14.689 7.664 20.001-4.762 5.313-7.664 12.326-7.664 20.008 0 16.542 13.458 30 30 30s30-13.458 30-30v-.008c0-7.678-2.903-14.689-7.664-20 4.761-5.312 7.664-12.323 7.664-20 .001-.901.476-2.688 2.736-6.085zm-33.281-22.031c5.196-7.811 12.47-16.151 25.105-28.787 3.396-3.396 6.013-7.261 7.779-11.488 1.766-4.23 2.661-8.756 2.661-13.452 0-9.351-3.64-18.141-10.25-24.75-6.609-6.609-15.399-10.25-24.75-10.25-9.352 0-18.141 3.64-24.75 10.25s-10.25 15.4-10.25 24.75c0 5.514-4.486 10-10 10s-10-4.486-10-10c0-14.688 5.722-28.5 16.111-38.889s24.2-16.111 38.889-16.111 28.501 5.722 38.89 16.11c10.389 10.39 16.11 24.201 16.11 38.889 0 7.233-1.428 14.318-4.243 21.059-2.837 6.794-6.895 12.857-12.059 18.021-11.85 11.85-18.401 19.267-22.614 25.6-4.15 6.237-6.084 11.691-6.084 17.164 0 5.514-4.486 10-10 10s-10-4.486-10-10c.001-9.618 2.917-18.289 9.455-28.116zm10.546 68.125c0 5.514-4.486 10-10 10s-10-4.486-10-10.008c0-5.514 4.486-10 10-10s10 4.486 10 10z"/><path d="m223.006 101.006c2.401 0 4.811-.859 6.727-2.602 4.086-3.715 4.388-10.04.673-14.126-3.715-4.087-10.04-4.388-14.126-.673l-.005.005c-4.086 3.715-4.385 10.037-.67 14.124 1.972 2.171 4.681 3.272 7.401 3.272z"/></g></g></svg>